<?xml version="1.0" encoding="UTF-8" standalone="no"?>
<svg
   xmlns:dc="http://purl.org/dc/elements/1.1/"
   xmlns:cc="http://creativecommons.org/ns#"
   xmlns:rdf="http://www.w3.org/1999/02/22-rdf-syntax-ns#"
   xmlns:svg="http://www.w3.org/2000/svg"
   xmlns="http://www.w3.org/2000/svg"
   xmlns:sodipodi="http://sodipodi.sourceforge.net/DTD/sodipodi-0.dtd"
   xmlns:inkscape="http://www.inkscape.org/namespaces/inkscape"
   version="1.1"
   width="2.5554771cm"
   height="4.1709299cm"
   viewBox="0 0 10060.855 16420.801"
   id="svg2"
   inkscape:version="0.91 r13725"
   sodipodi:docname="HEX_FT232RL.svg">
  <metadata
     id="metadata556">
    <rdf:RDF>
      <cc:Work
         rdf:about="">
        <dc:format>image/svg+xml</dc:format>
        <dc:type
           rdf:resource="http://purl.org/dc/dcmitype/StillImage" />
        <dc:title>SVG Picture created as HEX_FT232RL.sch.svg date 2015/06/15 17:51:56 </dc:title>
      </cc:Work>
    </rdf:RDF>
  </metadata>
  <defs
     id="defs554" />
  <sodipodi:namedview
     pagecolor="#ffffff"
     bordercolor="#666666"
     borderopacity="1"
     objecttolerance="10"
     gridtolerance="10"
     guidetolerance="10"
     inkscape:pageopacity="0"
     inkscape:pageshadow="2"
     inkscape:window-width="640"
     inkscape:window-height="480"
     id="namedview552"
     showgrid="false"
     fit-margin-top="0"
     fit-margin-left="0"
     fit-margin-right="0"
     fit-margin-bottom="0"
     inkscape:zoom="0.31715345"
     inkscape:cx="332.95696"
     inkscape:cy="69.218873"
     inkscape:window-x="0"
     inkscape:window-y="0"
     inkscape:window-maximized="0"
     inkscape:current-layer="svg2" />
  <title
     id="title4">SVG Picture created as HEX_FT232RL.sch.svg date 2015/06/15 17:51:56 </title>
  <desc
     id="desc6">Picture generated by Eeschema-SVG </desc>
  <g
     style="fill:#000000;fill-opacity:1;stroke:#000000;stroke-linecap:round;stroke-linejoin:round;stroke-opacity:1"
     id="g8"
     transform="translate(-21469.573,-32609.708)" />
  <g
     style="fill:#000000;fill-opacity:0;stroke:#000000;stroke-width:0;stroke-linecap:round;stroke-linejoin:round;stroke-opacity:1"
     id="g10"
     transform="translate(-21469.573,-32609.708)" />
  <g
     style="fill:#840000;fill-opacity:0;stroke:#840000;stroke-width:60;stroke-linecap:round;stroke-linejoin:round;stroke-opacity:1"
     id="g12"
     transform="translate(-21469.573,-32609.708)">
    <rect
       x="22500"
       y="34000"
       width="8000"
       height="15000"
       rx="0"
       id="rect14" />
    <polyline
       fill="none;"
       points="22500,44000 25500,44000 "
       id="polyline16" />
    <polyline
       fill="none;"
       points="25500,34000 25500,49000 "
       id="polyline18" />
    <polyline
       fill="none;"
       points="27500,44000 30500,44000 "
       id="polyline20" />
    <polyline
       fill="none;"
       points="27500,34000 27500,49000 "
       id="polyline22" />
    <path
       d="m 22500,35000 -1000,0"
       id="path24"
       inkscape:connector-curvature="0" />
  </g>
  <g
     style="fill:#008484;fill-opacity:0;stroke:#008484;stroke-width:60;stroke-linecap:round;stroke-linejoin:round;stroke-opacity:1"
     id="g26"
     transform="translate(-21469.573,-32609.708)">
    <path
       d="m 23020,35230 0,-500 190,0 50,20 20,20 20,50 0,70 -20,50 -20,20 -50,30 -190,0"
       id="path28"
       inkscape:connector-curvature="0" />
    <path
       d="m 23470,34730 120,500 100,-360 90,360 120,-500"
       id="path30"
       inkscape:connector-curvature="0" />
    <path
       d="m 24370,35230 -160,-240"
       id="path32"
       inkscape:connector-curvature="0" />
    <path
       d="m 24090,35230 0,-500 190,0 50,20 20,20 20,50 0,70 -20,50 -20,20 -50,30 -190,0"
       id="path34"
       inkscape:connector-curvature="0" />
    <path
       d="m 24590,34960 170,0"
       id="path36"
       inkscape:connector-curvature="0" />
    <path
       d="m 24830,35230 -240,0 0,-500 240,0"
       id="path38"
       inkscape:connector-curvature="0" />
    <path
       d="m 25040,35230 0,-500 280,500 0,-500"
       id="path40"
       inkscape:connector-curvature="0" />
  </g>
  <g
     style="fill:#840000;fill-opacity:0;stroke:#840000;stroke-width:60;stroke-linecap:round;stroke-linejoin:round;stroke-opacity:1"
     id="g42"
     transform="translate(-21469.573,-32609.708)">
    <path
       d="m 22140,34880 -280,0"
       id="path44"
       inkscape:connector-curvature="0" />
    <path
       d="m 22000,34880 0,-500 -50,70 -50,50 -40,20"
       id="path46"
       inkscape:connector-curvature="0" />
    <path
       d="m 22500,36000 -1000,0"
       id="path48"
       inkscape:connector-curvature="0" />
  </g>
  <g
     style="fill:#008484;fill-opacity:0;stroke:#008484;stroke-width:60;stroke-linecap:round;stroke-linejoin:round;stroke-opacity:1"
     id="g50"
     transform="translate(-21469.573,-32609.708)">
    <path
       d="m 22950,35730 280,0"
       id="path52"
       inkscape:connector-curvature="0" />
    <path
       d="m 23090,36230 0,-500"
       id="path54"
       inkscape:connector-curvature="0" />
    <path
       d="m 23350,35730 330,500"
       id="path56"
       inkscape:connector-curvature="0" />
    <path
       d="m 23680,35730 -330,500"
       id="path58"
       inkscape:connector-curvature="0" />
    <path
       d="m 23880,36230 0,-500 120,0 70,20 50,50 20,50 20,90 0,70 -20,100 -20,40 -50,50 -70,30 -120,0"
       id="path60"
       inkscape:connector-curvature="0" />
    <path
       d="m 24380,35960 170,0"
       id="path62"
       inkscape:connector-curvature="0" />
    <path
       d="m 24620,36230 -240,0 0,-500 240,0"
       id="path64"
       inkscape:connector-curvature="0" />
    <path
       d="m 24830,36230 0,-500 280,500 0,-500"
       id="path66"
       inkscape:connector-curvature="0" />
  </g>
  <g
     style="fill:#840000;fill-opacity:0;stroke:#840000;stroke-width:60;stroke-linecap:round;stroke-linejoin:round;stroke-opacity:1"
     id="g68"
     transform="translate(-21469.573,-32609.708)">
    <path
       d="m 21860,35420 20,-20 50,-20 120,0 40,20 30,20 20,50 0,50 -20,70 -290,290 310,0"
       id="path70"
       inkscape:connector-curvature="0" />
    <path
       d="m 22500,37000 -1000,0"
       id="path72"
       inkscape:connector-curvature="0" />
  </g>
  <g
     style="fill:#008484;fill-opacity:0;stroke:#008484;stroke-width:60;stroke-linecap:round;stroke-linejoin:round;stroke-opacity:1"
     id="g74"
     transform="translate(-21469.573,-32609.708)">
    <path
       d="m 23000,37200 70,30 120,0 40,-30 30,-20 20,-50 0,-50 -20,-40 -30,-30 -40,-20 -100,-30 -50,-20 -20,-20 -20,-50 0,-50 20,-50 20,-20 50,-20 120,0 70,20"
       id="path76"
       inkscape:connector-curvature="0" />
    <path
       d="m 23740,37230 -240,0 0,-500"
       id="path78"
       inkscape:connector-curvature="0" />
    <path
       d="m 23900,36960 170,0"
       id="path80"
       inkscape:connector-curvature="0" />
    <path
       d="m 24140,37230 -240,0 0,-500 240,0"
       id="path82"
       inkscape:connector-curvature="0" />
    <path
       d="m 24350,36960 170,0"
       id="path84"
       inkscape:connector-curvature="0" />
    <path
       d="m 24590,37230 -240,0 0,-500 240,0"
       id="path86"
       inkscape:connector-curvature="0" />
    <path
       d="m 24800,37230 0,-500 190,0 50,20 20,20 20,50 0,70 -20,50 -20,20 -50,30 -190,0"
       id="path88"
       inkscape:connector-curvature="0" />
  </g>
  <g
     style="fill:#840000;fill-opacity:0;stroke:#840000;stroke-width:60;stroke-linecap:round;stroke-linejoin:round;stroke-opacity:1"
     id="g90"
     transform="translate(-21469.573,-32609.708)">
    <path
       d="m 21830,36380 310,0 -170,190 80,0 40,20 30,20 20,50 0,120 -20,50 -30,20 -40,30 -150,0 -40,-30 -30,-20"
       id="path92"
       inkscape:connector-curvature="0" />
    <path
       d="m 22500,38000 -1000,0"
       id="path94"
       inkscape:connector-curvature="0" />
  </g>
  <g
     style="fill:#008484;fill-opacity:0;stroke:#008484;stroke-width:60;stroke-linecap:round;stroke-linejoin:round;stroke-opacity:1"
     id="g96"
     transform="translate(-21469.573,-32609.708)">
    <path
       d="m 23300,38180 -20,20 -70,30 -50,0 -70,-30 -50,-50 -20,-40 -20,-100 0,-70 20,-90 20,-50 50,-50 70,-20 50,0 70,20 20,20"
       id="path98"
       inkscape:connector-curvature="0" />
    <path
       d="m 23450,37730 280,0"
       id="path100"
       inkscape:connector-curvature="0" />
    <path
       d="m 23590,38230 0,-500"
       id="path102"
       inkscape:connector-curvature="0" />
    <path
       d="m 23880,38200 70,30 120,0 40,-30 30,-20 20,-50 0,-50 -20,-40 -30,-30 -40,-20 -100,-30 -50,-20 -20,-20 -20,-50 0,-50 20,-50 20,-20 50,-20 120,0 70,20"
       id="path104"
       inkscape:connector-curvature="0" />
  </g>
  <g
     style="fill:#840000;fill-opacity:0;stroke:#840000;stroke-width:60;stroke-linecap:round;stroke-linejoin:round;stroke-opacity:1"
     id="g106"
     transform="translate(-21469.573,-32609.708)">
    <path
       d="m 22090,37540 0,340"
       id="path108"
       inkscape:connector-curvature="0" />
    <path
       d="m 21970,37350 -110,360 300,0"
       id="path110"
       inkscape:connector-curvature="0" />
    <path
       d="m 22500,39000 -1000,0"
       id="path112"
       inkscape:connector-curvature="0" />
  </g>
  <g
     style="fill:#008484;fill-opacity:0;stroke:#008484;stroke-width:60;stroke-linecap:round;stroke-linejoin:round;stroke-opacity:1"
     id="g114"
     transform="translate(-21469.573,-32609.708)">
    <path
       d="m 22970,38730 310,0 -170,190 80,0 40,20 30,20 20,50 0,120 -20,50 -30,20 -40,30 -150,0 -40,-30 -30,-20"
       id="path116"
       inkscape:connector-curvature="0" />
    <path
       d="m 23500,39180 20,20 -20,30 -20,-30 20,-20 0,50"
       id="path118"
       inkscape:connector-curvature="0" />
    <path
       d="m 23690,38730 310,0 -170,190 80,0 40,20 30,20 20,50 0,120 -20,50 -30,20 -40,30 -150,0 -40,-30 -30,-20"
       id="path120"
       inkscape:connector-curvature="0" />
    <path
       d="m 24150,38730 160,500 170,-500"
       id="path122"
       inkscape:connector-curvature="0" />
  </g>
  <g
     style="fill:#840000;fill-opacity:0;stroke:#840000;stroke-width:60;stroke-linecap:round;stroke-linejoin:round;stroke-opacity:1"
     id="g124"
     transform="translate(-21469.573,-32609.708)">
    <path
       d="m 22120,38380 -240,0 -20,230 20,-20 50,-20 120,0 40,20 30,20 20,50 0,120 -20,50 -30,20 -40,30 -120,0 -50,-30 -20,-20"
       id="path126"
       inkscape:connector-curvature="0" />
    <path
       d="m 22500,40000 -1000,0"
       id="path128"
       inkscape:connector-curvature="0" />
  </g>
  <g
     style="fill:#008484;fill-opacity:0;stroke:#008484;stroke-width:60;stroke-linecap:round;stroke-linejoin:round;stroke-opacity:1"
     id="g130"
     transform="translate(-21469.573,-32609.708)">
    <path
       d="m 22950,39730 160,500 170,-500"
       id="path132"
       inkscape:connector-curvature="0" />
    <path
       d="m 23730,40180 -20,20 -70,30 -50,0 -70,-30 -50,-50 -20,-40 -20,-100 0,-70 20,-90 20,-50 50,-50 70,-20 50,0 70,20 20,20"
       id="path134"
       inkscape:connector-curvature="0" />
    <path
       d="m 24230,40180 -20,20 -70,30 -50,0 -70,-30 -50,-50 -20,-40 -20,-100 0,-70 20,-90 20,-50 50,-50 70,-20 50,0 70,20 20,20"
       id="path136"
       inkscape:connector-curvature="0" />
  </g>
  <g
     style="fill:#840000;fill-opacity:0;stroke:#840000;stroke-width:60;stroke-linecap:round;stroke-linejoin:round;stroke-opacity:1"
     id="g138"
     transform="translate(-21469.573,-32609.708)">
    <path
       d="m 22090,39380 -90,0 -50,20 -20,20 -50,80 -20,90 0,190 20,50 20,20 50,30 100,0 40,-30 30,-20 20,-50 0,-120 -20,-50 -30,-20 -40,-20 -100,0 -50,20 -20,20 -20,50"
       id="path140"
       inkscape:connector-curvature="0" />
    <path
       d="m 22500,41000 -1000,0"
       id="path142"
       inkscape:connector-curvature="0" />
  </g>
  <g
     style="fill:#008484;fill-opacity:0;stroke:#008484;stroke-width:60;stroke-linecap:round;stroke-linejoin:round;stroke-opacity:1"
     id="g144"
     transform="translate(-21469.573,-32609.708)">
    <path
       d="m 23300,41230 -160,-240"
       id="path146"
       inkscape:connector-curvature="0" />
    <path
       d="m 23020,41230 0,-500 190,0 50,20 20,20 20,50 0,70 -20,50 -20,20 -50,30 -190,0"
       id="path148"
       inkscape:connector-curvature="0" />
    <path
       d="m 23470,40730 330,500"
       id="path150"
       inkscape:connector-curvature="0" />
    <path
       d="m 23800,40730 -330,500"
       id="path152"
       inkscape:connector-curvature="0" />
    <path
       d="m 24240,41230 -240,0 0,-500"
       id="path154"
       inkscape:connector-curvature="0" />
    <path
       d="m 24400,40960 170,0"
       id="path156"
       inkscape:connector-curvature="0" />
    <path
       d="m 24640,41230 -240,0 0,-500 240,0"
       id="path158"
       inkscape:connector-curvature="0" />
    <path
       d="m 24850,41230 0,-500 120,0 70,20 50,50 20,50 20,90 0,70 -20,100 -20,40 -50,50 -70,30 -120,0"
       id="path160"
       inkscape:connector-curvature="0" />
  </g>
  <g
     style="fill:#840000;fill-opacity:0;stroke:#840000;stroke-width:60;stroke-linecap:round;stroke-linejoin:round;stroke-opacity:1"
     id="g162"
     transform="translate(-21469.573,-32609.708)">
    <path
       d="m 21830,40380 330,0 -210,500"
       id="path164"
       inkscape:connector-curvature="0" />
    <path
       d="m 22500,42000 -1000,0"
       id="path166"
       inkscape:connector-curvature="0" />
  </g>
  <g
     style="fill:#008484;fill-opacity:0;stroke:#008484;stroke-width:60;stroke-linecap:round;stroke-linejoin:round;stroke-opacity:1"
     id="g168"
     transform="translate(-21469.573,-32609.708)">
    <path
       d="m 22950,41730 280,0"
       id="path170"
       inkscape:connector-curvature="0" />
    <path
       d="m 23090,42230 0,-500"
       id="path172"
       inkscape:connector-curvature="0" />
    <path
       d="m 23350,41730 330,500"
       id="path174"
       inkscape:connector-curvature="0" />
    <path
       d="m 23680,41730 -330,500"
       id="path176"
       inkscape:connector-curvature="0" />
    <path
       d="m 24120,42230 -240,0 0,-500"
       id="path178"
       inkscape:connector-curvature="0" />
    <path
       d="m 24280,41960 170,0"
       id="path180"
       inkscape:connector-curvature="0" />
    <path
       d="m 24520,42230 -240,0 0,-500 240,0"
       id="path182"
       inkscape:connector-curvature="0" />
    <path
       d="m 24730,42230 0,-500 120,0 70,20 50,50 20,50 20,90 0,70 -20,100 -20,40 -50,50 -70,30 -120,0"
       id="path184"
       inkscape:connector-curvature="0" />
  </g>
  <g
     style="fill:#840000;fill-opacity:0;stroke:#840000;stroke-width:60;stroke-linecap:round;stroke-linejoin:round;stroke-opacity:1"
     id="g186"
     transform="translate(-21469.573,-32609.708)">
    <path
       d="m 21950,41590 -50,-20 -20,-30 -20,-40 0,-30 20,-50 20,-20 50,-20 100,0 40,20 30,20 20,50 0,30 -20,40 -30,30 -40,20 -100,0 -50,20 -20,30 -20,50 0,90 20,50 20,20 50,30 100,0 40,-30 30,-20 20,-50 0,-90 -20,-50 -30,-30 -40,-20"
       id="path188"
       inkscape:connector-curvature="0" />
    <path
       d="m 22500,43000 -1000,0"
       id="path190"
       inkscape:connector-curvature="0" />
  </g>
  <g
     style="fill:#008484;fill-opacity:0;stroke:#008484;stroke-width:60;stroke-linecap:round;stroke-linejoin:round;stroke-opacity:1"
     id="g192"
     transform="translate(-21469.573,-32609.708)">
    <path
       d="m 23280,42750 -50,-20 -70,0 -70,20 -50,50 -20,50 -20,90 0,70 20,100 20,40 50,50 70,30 50,0 70,-30 20,-20 0,-170 -90,0"
       id="path194"
       inkscape:connector-curvature="0" />
    <path
       d="m 23520,43230 0,-500 280,500 0,-500"
       id="path196"
       inkscape:connector-curvature="0" />
    <path
       d="m 24040,43230 0,-500 120,0 70,20 50,50 20,50 20,90 0,70 -20,100 -20,40 -50,50 -70,30 -120,0"
       id="path198"
       inkscape:connector-curvature="0" />
  </g>
  <g
     style="fill:#840000;fill-opacity:0;stroke:#840000;stroke-width:60;stroke-linecap:round;stroke-linejoin:round;stroke-opacity:1"
     id="g200"
     transform="translate(-21469.573,-32609.708)">
    <path
       d="m 21900,42880 100,0 50,-30 20,-20 50,-70 20,-100 0,-190 -20,-50 -30,-20 -40,-20 -100,0 -50,20 -20,20 -20,50 0,120 20,50 20,20 50,30 100,0 40,-30 30,-20 20,-50"
       id="path202"
       inkscape:connector-curvature="0" />
    <path
       d="m 30500,48000 1000,0"
       id="path204"
       inkscape:connector-curvature="0" />
  </g>
  <g
     style="fill:#008484;fill-opacity:0;stroke:#008484;stroke-width:60;stroke-linecap:round;stroke-linejoin:round;stroke-opacity:1"
     id="g206"
     transform="translate(-21469.573,-32609.708)">
    <path
       d="m 28540,47730 310,0 -170,190 80,0 40,20 30,20 20,50 0,120 -20,50 -30,20 -40,30 -150,0 -40,-30 -30,-20"
       id="path208"
       inkscape:connector-curvature="0" />
    <path
       d="m 29070,48180 20,20 -20,30 -20,-30 20,-20 0,50"
       id="path210"
       inkscape:connector-curvature="0" />
    <path
       d="m 29260,47730 310,0 -170,190 80,0 40,20 30,20 20,50 0,120 -20,50 -30,20 -40,30 -150,0 -40,-30 -30,-20"
       id="path212"
       inkscape:connector-curvature="0" />
    <path
       d="m 29720,47730 160,500 170,-500"
       id="path214"
       inkscape:connector-curvature="0" />
  </g>
  <g
     style="fill:#840000;fill-opacity:0;stroke:#840000;stroke-width:60;stroke-linecap:round;stroke-linejoin:round;stroke-opacity:1"
     id="g216"
     transform="translate(-21469.573,-32609.708)">
    <path
       d="m 30500,45000 1000,0"
       id="path218"
       inkscape:connector-curvature="0" />
  </g>
  <g
     style="fill:#008484;fill-opacity:0;stroke:#008484;stroke-width:60;stroke-linecap:round;stroke-linejoin:round;stroke-opacity:1"
     id="g220"
     transform="translate(-21469.573,-32609.708)">
    <path
       d="m 28960,44750 -50,-20 -70,0 -70,20 -50,50 -20,50 -20,90 0,70 20,100 20,40 50,50 70,30 50,0 70,-30 20,-20 0,-170 -90,0"
       id="path222"
       inkscape:connector-curvature="0" />
    <path
       d="m 29200,45230 0,-500 280,500 0,-500"
       id="path224"
       inkscape:connector-curvature="0" />
    <path
       d="m 29720,45230 0,-500 120,0 70,20 50,50 20,50 20,90 0,70 -20,100 -20,40 -50,50 -70,30 -120,0"
       id="path226"
       inkscape:connector-curvature="0" />
  </g>
  <g
     style="fill:#840000;fill-opacity:0;stroke:#840000;stroke-width:60;stroke-linecap:round;stroke-linejoin:round;stroke-opacity:1"
     id="g228"
     transform="translate(-21469.573,-32609.708)">
    <path
       d="m 30500,46000 1000,0"
       id="path230"
       inkscape:connector-curvature="0" />
  </g>
  <g
     style="fill:#008484;fill-opacity:0;stroke:#008484;stroke-width:60;stroke-linecap:round;stroke-linejoin:round;stroke-opacity:1"
     id="g232"
     transform="translate(-21469.573,-32609.708)">
    <path
       d="m 28660,46230 -160,-240"
       id="path234"
       inkscape:connector-curvature="0" />
    <path
       d="m 28380,46230 0,-500 190,0 50,20 20,20 20,50 0,70 -20,50 -20,20 -50,30 -190,0"
       id="path236"
       inkscape:connector-curvature="0" />
    <path
       d="m 28830,45730 330,500"
       id="path238"
       inkscape:connector-curvature="0" />
    <path
       d="m 29160,45730 -330,500"
       id="path240"
       inkscape:connector-curvature="0" />
    <path
       d="m 29360,46040 380,0"
       id="path242"
       inkscape:connector-curvature="0" />
    <path
       d="m 29980,46230 0,-500"
       id="path244"
       inkscape:connector-curvature="0" />
  </g>
  <g
     style="fill:#840000;fill-opacity:0;stroke:#840000;stroke-width:60;stroke-linecap:round;stroke-linejoin:round;stroke-opacity:1"
     id="g246"
     transform="translate(-21469.573,-32609.708)">
    <path
       d="m 30500,47000 1000,0"
       id="path248"
       inkscape:connector-curvature="0" />
  </g>
  <g
     style="fill:#008484;fill-opacity:0;stroke:#008484;stroke-width:60;stroke-linecap:round;stroke-linejoin:round;stroke-opacity:1"
     id="g250"
     transform="translate(-21469.573,-32609.708)">
    <path
       d="m 28150,46730 280,0"
       id="path252"
       inkscape:connector-curvature="0" />
    <path
       d="m 28290,47230 0,-500"
       id="path254"
       inkscape:connector-curvature="0" />
    <path
       d="m 28550,46730 330,500"
       id="path256"
       inkscape:connector-curvature="0" />
    <path
       d="m 28880,46730 -330,500"
       id="path258"
       inkscape:connector-curvature="0" />
    <path
       d="m 29080,47040 380,0"
       id="path260"
       inkscape:connector-curvature="0" />
    <path
       d="m 29790,46730 100,0 50,20 40,50 30,90 0,170 -30,90 -40,50 -50,30 -100,0 -40,-30 -50,-50 -20,-90 0,-170 20,-90 50,-50 40,-20"
       id="path262"
       inkscape:connector-curvature="0" />
  </g>
  <g
     style="fill:#840000;fill-opacity:0;stroke:#840000;stroke-width:60;stroke-linecap:round;stroke-linejoin:round;stroke-opacity:1"
     id="g264"
     transform="translate(-21469.573,-32609.708)">
    <path
       d="m 22500,46000 -1000,0"
       id="path266"
       inkscape:connector-curvature="0" />
  </g>
  <g
     style="fill:#008484;fill-opacity:0;stroke:#008484;stroke-width:60;stroke-linecap:round;stroke-linejoin:round;stroke-opacity:1"
     id="g268"
     transform="translate(-21469.573,-32609.708)">
    <path
       d="m 23020,45730 0,400 20,50 30,20 40,30 100,0 50,-30 20,-20 20,-50 0,-400"
       id="path270"
       inkscape:connector-curvature="0" />
    <path
       d="m 23540,46230 0,-500 120,0 70,20 50,50 20,50 20,90 0,70 -20,100 -20,40 -50,50 -70,30 -120,0"
       id="path272"
       inkscape:connector-curvature="0" />
    <path
       d="m 24040,46040 380,0"
       id="path274"
       inkscape:connector-curvature="0" />
    <path
       d="m 24230,46230 0,-380"
       id="path276"
       inkscape:connector-curvature="0" />
  </g>
  <g
     style="fill:#840000;fill-opacity:0;stroke:#840000;stroke-width:60;stroke-linecap:round;stroke-linejoin:round;stroke-opacity:1"
     id="g278"
     transform="translate(-21469.573,-32609.708)">
    <path
       d="m 22500,47000 -1000,0"
       id="path280"
       inkscape:connector-curvature="0" />
  </g>
  <g
     style="fill:#008484;fill-opacity:0;stroke:#008484;stroke-width:60;stroke-linecap:round;stroke-linejoin:round;stroke-opacity:1"
     id="g282"
     transform="translate(-21469.573,-32609.708)">
    <path
       d="m 23020,46730 0,400 20,50 30,20 40,30 100,0 50,-30 20,-20 20,-50 0,-400"
       id="path284"
       inkscape:connector-curvature="0" />
    <path
       d="m 23540,47230 0,-500 120,0 70,20 50,50 20,50 20,90 0,70 -20,100 -20,40 -50,50 -70,30 -120,0"
       id="path286"
       inkscape:connector-curvature="0" />
    <path
       d="m 24040,47040 380,0"
       id="path288"
       inkscape:connector-curvature="0" />
  </g>
  <g
     style="fill:#840000;fill-opacity:0;stroke:#840000;stroke-width:60;stroke-linecap:round;stroke-linejoin:round;stroke-opacity:1"
     id="g290"
     transform="translate(-21469.573,-32609.708)">
    <path
       d="m 22500,48000 -1000,0"
       id="path292"
       inkscape:connector-curvature="0" />
  </g>
  <g
     style="fill:#008484;fill-opacity:0;stroke:#008484;stroke-width:60;stroke-linecap:round;stroke-linejoin:round;stroke-opacity:1"
     id="g294"
     transform="translate(-21469.573,-32609.708)">
    <path
       d="m 23020,47730 0,400 20,50 30,20 40,30 100,0 50,-30 20,-20 20,-50 0,-400"
       id="path296"
       inkscape:connector-curvature="0" />
    <path
       d="m 23800,47750 -50,-20 -70,0 -70,20 -50,50 -20,50 -20,90 0,70 20,100 20,40 50,50 70,30 50,0 70,-30 20,-20 0,-170 -90,0"
       id="path298"
       inkscape:connector-curvature="0" />
    <path
       d="m 24040,48230 0,-500 280,500 0,-500"
       id="path300"
       inkscape:connector-curvature="0" />
    <path
       d="m 24560,48230 0,-500 120,0 70,20 50,50 20,50 20,90 0,70 -20,100 -20,40 -50,50 -70,30 -120,0"
       id="path302"
       inkscape:connector-curvature="0" />
  </g>
  <g
     style="fill:#840000;fill-opacity:0;stroke:#840000;stroke-width:60;stroke-linecap:round;stroke-linejoin:round;stroke-opacity:1"
     id="g304"
     transform="translate(-21469.573,-32609.708)">
    <path
       d="m 22500,45000 -1000,0"
       id="path306"
       inkscape:connector-curvature="0" />
  </g>
  <g
     style="fill:#008484;fill-opacity:0;stroke:#008484;stroke-width:60;stroke-linecap:round;stroke-linejoin:round;stroke-opacity:1"
     id="g308"
     transform="translate(-21469.573,-32609.708)">
    <path
       d="m 23020,44730 0,400 20,50 30,20 40,30 100,0 50,-30 20,-20 20,-50 0,-400"
       id="path310"
       inkscape:connector-curvature="0" />
    <path
       d="m 23470,44730 160,500 170,-500"
       id="path312"
       inkscape:connector-curvature="0" />
    <path
       d="m 24250,45180 -20,20 -70,30 -50,0 -70,-30 -50,-50 -20,-40 -20,-100 0,-70 20,-90 20,-50 50,-50 70,-20 50,0 70,20 20,20"
       id="path314"
       inkscape:connector-curvature="0" />
    <path
       d="m 24750,45180 -20,20 -70,30 -50,0 -70,-30 -50,-50 -20,-40 -20,-100 0,-70 20,-90 20,-50 50,-50 70,-20 50,0 70,20 20,20"
       id="path316"
       inkscape:connector-curvature="0" />
  </g>
  <g
     style="fill:#840000;fill-opacity:0;stroke:#840000;stroke-width:60;stroke-linecap:round;stroke-linejoin:round;stroke-opacity:1"
     id="g318"
     transform="translate(-21469.573,-32609.708)">
    <path
       d="m 30500,43000 1000,0"
       id="path320"
       inkscape:connector-curvature="0" />
  </g>
  <g
     style="fill:#008484;fill-opacity:0;stroke:#008484;stroke-width:60;stroke-linecap:round;stroke-linejoin:round;stroke-opacity:1"
     id="g322"
     transform="translate(-21469.573,-32609.708)">
    <path
       d="m 28790,42730 280,0"
       id="path324"
       inkscape:connector-curvature="0" />
    <path
       d="m 28930,43230 0,-500"
       id="path326"
       inkscape:connector-curvature="0" />
    <path
       d="m 29190,42730 330,500"
       id="path328"
       inkscape:connector-curvature="0" />
    <path
       d="m 29520,42730 -330,500"
       id="path330"
       inkscape:connector-curvature="0" />
    <path
       d="m 29720,43230 0,-500 120,0 70,20 50,50 20,50 20,90 0,70 -20,100 -20,40 -50,50 -70,30 -120,0"
       id="path332"
       inkscape:connector-curvature="0" />
  </g>
  <g
     style="fill:#840000;fill-opacity:0;stroke:#840000;stroke-width:60;stroke-linecap:round;stroke-linejoin:round;stroke-opacity:1"
     id="g334"
     transform="translate(-21469.573,-32609.708)">
    <path
       d="m 30900,42880 -280,0"
       id="path336"
       inkscape:connector-curvature="0" />
    <path
       d="m 30760,42880 0,-500 -50,70 -50,50 -40,20"
       id="path338"
       inkscape:connector-curvature="0" />
    <path
       d="m 31210,42380 50,0 50,20 20,20 30,50 20,100 0,120 -20,90 -30,50 -20,20 -50,30 -50,0 -40,-30 -30,-20 -20,-50 -20,-90 0,-120 20,-100 20,-50 30,-20 40,-20"
       id="path340"
       inkscape:connector-curvature="0" />
    <path
       d="m 30500,42000 1000,0"
       id="path342"
       inkscape:connector-curvature="0" />
  </g>
  <g
     style="fill:#008484;fill-opacity:0;stroke:#008484;stroke-width:60;stroke-linecap:round;stroke-linejoin:round;stroke-opacity:1"
     id="g344"
     transform="translate(-21469.573,-32609.708)">
    <path
       d="m 28840,42230 0,-500 120,0 70,20 50,50 20,50 20,90 0,70 -20,100 -20,40 -50,50 -70,30 -120,0"
       id="path346"
       inkscape:connector-curvature="0" />
    <path
       d="m 29270,41730 280,0"
       id="path348"
       inkscape:connector-curvature="0" />
    <path
       d="m 29410,42230 0,-500"
       id="path350"
       inkscape:connector-curvature="0" />
    <path
       d="m 30000,42230 -160,-240"
       id="path352"
       inkscape:connector-curvature="0" />
    <path
       d="m 29720,42230 0,-500 190,0 50,20 20,20 20,50 0,70 -20,50 -20,20 -50,30 -190,0"
       id="path354"
       inkscape:connector-curvature="0" />
  </g>
  <g
     style="fill:#840000;fill-opacity:0;stroke:#840000;stroke-width:60;stroke-linecap:round;stroke-linejoin:round;stroke-opacity:1"
     id="g356"
     transform="translate(-21469.573,-32609.708)">
    <path
       d="m 30900,41880 -280,0"
       id="path358"
       inkscape:connector-curvature="0" />
    <path
       d="m 30760,41880 0,-500 -50,70 -50,50 -40,20"
       id="path360"
       inkscape:connector-curvature="0" />
    <path
       d="m 31380,41880 -280,0"
       id="path362"
       inkscape:connector-curvature="0" />
    <path
       d="m 31240,41880 0,-500 -50,70 -50,50 -40,20"
       id="path364"
       inkscape:connector-curvature="0" />
    <path
       d="m 30500,41000 1000,0"
       id="path366"
       inkscape:connector-curvature="0" />
  </g>
  <g
     style="fill:#008484;fill-opacity:0;stroke:#008484;stroke-width:60;stroke-linecap:round;stroke-linejoin:round;stroke-opacity:1"
     id="g368"
     transform="translate(-21469.573,-32609.708)">
    <path
       d="m 29140,41230 -160,-240"
       id="path370"
       inkscape:connector-curvature="0" />
    <path
       d="m 28860,41230 0,-500 190,0 50,20 20,20 20,50 0,70 -20,50 -20,20 -50,30 -190,0"
       id="path372"
       inkscape:connector-curvature="0" />
    <path
       d="m 29290,40730 280,0"
       id="path374"
       inkscape:connector-curvature="0" />
    <path
       d="m 29430,41230 0,-500"
       id="path376"
       inkscape:connector-curvature="0" />
    <path
       d="m 29720,41200 70,30 120,0 40,-30 30,-20 20,-50 0,-50 -20,-40 -30,-30 -40,-20 -100,-30 -50,-20 -20,-20 -20,-50 0,-50 20,-50 20,-20 50,-20 120,0 70,20"
       id="path378"
       inkscape:connector-curvature="0" />
  </g>
  <g
     style="fill:#840000;fill-opacity:0;stroke:#840000;stroke-width:60;stroke-linecap:round;stroke-linejoin:round;stroke-opacity:1"
     id="g380"
     transform="translate(-21469.573,-32609.708)">
    <path
       d="m 30900,40880 -280,0"
       id="path382"
       inkscape:connector-curvature="0" />
    <path
       d="m 30760,40880 0,-500 -50,70 -50,50 -40,20"
       id="path384"
       inkscape:connector-curvature="0" />
    <path
       d="m 31100,40420 20,-20 50,-20 120,0 40,20 30,20 20,50 0,50 -20,70 -290,290 310,0"
       id="path386"
       inkscape:connector-curvature="0" />
    <path
       d="m 30500,40000 1000,0"
       id="path388"
       inkscape:connector-curvature="0" />
  </g>
  <g
     style="fill:#008484;fill-opacity:0;stroke:#008484;stroke-width:60;stroke-linecap:round;stroke-linejoin:round;stroke-opacity:1"
     id="g390"
     transform="translate(-21469.573,-32609.708)">
    <path
       d="m 27960,39730 160,500 170,-500"
       id="path392"
       inkscape:connector-curvature="0" />
    <path
       d="m 28740,40180 -20,20 -70,30 -50,0 -70,-30 -50,-50 -20,-40 -20,-100 0,-70 20,-90 20,-50 50,-50 70,-20 50,0 70,20 20,20"
       id="path394"
       inkscape:connector-curvature="0" />
    <path
       d="m 29240,40180 -20,20 -70,30 -50,0 -70,-30 -50,-50 -20,-40 -20,-100 0,-70 20,-90 20,-50 50,-50 70,-20 50,0 70,20 20,20"
       id="path396"
       inkscape:connector-curvature="0" />
    <path
       d="m 29460,40230 0,-500"
       id="path398"
       inkscape:connector-curvature="0" />
    <path
       d="m 29790,39730 100,0 50,20 40,50 30,90 0,170 -30,90 -40,50 -50,30 -100,0 -40,-30 -50,-50 -20,-90 0,-170 20,-90 50,-50 40,-20"
       id="path400"
       inkscape:connector-curvature="0" />
  </g>
  <g
     style="fill:#840000;fill-opacity:0;stroke:#840000;stroke-width:60;stroke-linecap:round;stroke-linejoin:round;stroke-opacity:1"
     id="g402"
     transform="translate(-21469.573,-32609.708)">
    <path
       d="m 30900,39880 -280,0"
       id="path404"
       inkscape:connector-curvature="0" />
    <path
       d="m 30760,39880 0,-500 -50,70 -50,50 -40,20"
       id="path406"
       inkscape:connector-curvature="0" />
    <path
       d="m 31070,39380 310,0 -170,190 80,0 40,20 30,20 20,50 0,120 -20,50 -30,20 -40,30 -150,0 -40,-30 -30,-20"
       id="path408"
       inkscape:connector-curvature="0" />
    <path
       d="m 30500,39000 1000,0"
       id="path410"
       inkscape:connector-curvature="0" />
  </g>
  <g
     style="fill:#008484;fill-opacity:0;stroke:#008484;stroke-width:60;stroke-linecap:round;stroke-linejoin:round;stroke-opacity:1"
     id="g412"
     transform="translate(-21469.573,-32609.708)">
    <path
       d="m 29020,39230 -160,-240"
       id="path414"
       inkscape:connector-curvature="0" />
    <path
       d="m 28740,39230 0,-500 190,0 50,20 20,20 20,50 0,70 -20,50 -20,20 -50,30 -190,0"
       id="path416"
       inkscape:connector-curvature="0" />
    <path
       d="m 29190,38730 330,500"
       id="path418"
       inkscape:connector-curvature="0" />
    <path
       d="m 29520,38730 -330,500"
       id="path420"
       inkscape:connector-curvature="0" />
    <path
       d="m 29720,39230 0,-500 120,0 70,20 50,50 20,50 20,90 0,70 -20,100 -20,40 -50,50 -70,30 -120,0"
       id="path422"
       inkscape:connector-curvature="0" />
  </g>
  <g
     style="fill:#840000;fill-opacity:0;stroke:#840000;stroke-width:60;stroke-linecap:round;stroke-linejoin:round;stroke-opacity:1"
     id="g424"
     transform="translate(-21469.573,-32609.708)">
    <path
       d="m 30900,38880 -280,0"
       id="path426"
       inkscape:connector-curvature="0" />
    <path
       d="m 30760,38880 0,-500 -50,70 -50,50 -40,20"
       id="path428"
       inkscape:connector-curvature="0" />
    <path
       d="m 31330,38540 0,340"
       id="path430"
       inkscape:connector-curvature="0" />
    <path
       d="m 31210,38350 -110,360 300,0"
       id="path432"
       inkscape:connector-curvature="0" />
    <path
       d="m 30500,38000 1000,0"
       id="path434"
       inkscape:connector-curvature="0" />
  </g>
  <g
     style="fill:#008484;fill-opacity:0;stroke:#008484;stroke-width:60;stroke-linecap:round;stroke-linejoin:round;stroke-opacity:1"
     id="g436"
     transform="translate(-21469.573,-32609.708)">
    <path
       d="m 29760,38230 -160,-240"
       id="path438"
       inkscape:connector-curvature="0" />
    <path
       d="m 29480,38230 0,-500 190,0 50,20 20,20 20,50 0,70 -20,50 -20,20 -50,30 -190,0"
       id="path440"
       inkscape:connector-curvature="0" />
    <path
       d="m 29980,38230 0,-500"
       id="path442"
       inkscape:connector-curvature="0" />
  </g>
  <g
     style="fill:#840000;fill-opacity:0;stroke:#840000;stroke-width:60;stroke-linecap:round;stroke-linejoin:round;stroke-opacity:1"
     id="g444"
     transform="translate(-21469.573,-32609.708)">
    <path
       d="m 30900,37880 -280,0"
       id="path446"
       inkscape:connector-curvature="0" />
    <path
       d="m 30760,37880 0,-500 -50,70 -50,50 -40,20"
       id="path448"
       inkscape:connector-curvature="0" />
    <path
       d="m 31360,37380 -240,0 -20,230 20,-20 50,-20 120,0 40,20 30,20 20,50 0,120 -20,50 -30,20 -40,30 -120,0 -50,-30 -20,-20"
       id="path450"
       inkscape:connector-curvature="0" />
    <path
       d="m 30500,37000 1000,0"
       id="path452"
       inkscape:connector-curvature="0" />
  </g>
  <g
     style="fill:#008484;fill-opacity:0;stroke:#008484;stroke-width:60;stroke-linecap:round;stroke-linejoin:round;stroke-opacity:1"
     id="g454"
     transform="translate(-21469.573,-32609.708)">
    <path
       d="m 28960,36750 -50,-20 -70,0 -70,20 -50,50 -20,50 -20,90 0,70 20,100 20,40 50,50 70,30 50,0 70,-30 20,-20 0,-170 -90,0"
       id="path456"
       inkscape:connector-curvature="0" />
    <path
       d="m 29200,37230 0,-500 280,500 0,-500"
       id="path458"
       inkscape:connector-curvature="0" />
    <path
       d="m 29720,37230 0,-500 120,0 70,20 50,50 20,50 20,90 0,70 -20,100 -20,40 -50,50 -70,30 -120,0"
       id="path460"
       inkscape:connector-curvature="0" />
  </g>
  <g
     style="fill:#840000;fill-opacity:0;stroke:#840000;stroke-width:60;stroke-linecap:round;stroke-linejoin:round;stroke-opacity:1"
     id="g462"
     transform="translate(-21469.573,-32609.708)">
    <path
       d="m 30900,36880 -280,0"
       id="path464"
       inkscape:connector-curvature="0" />
    <path
       d="m 30760,36880 0,-500 -50,70 -50,50 -40,20"
       id="path466"
       inkscape:connector-curvature="0" />
    <path
       d="m 31330,36380 -90,0 -50,20 -20,20 -50,80 -20,90 0,190 20,50 20,20 50,30 100,0 40,-30 30,-20 20,-50 0,-120 -20,-50 -30,-20 -40,-20 -100,0 -50,20 -20,20 -20,50"
       id="path468"
       inkscape:connector-curvature="0" />
    <path
       d="m 30500,36000 1000,0"
       id="path470"
       inkscape:connector-curvature="0" />
  </g>
  <g
     style="fill:#008484;fill-opacity:0;stroke:#008484;stroke-width:60;stroke-linecap:round;stroke-linejoin:round;stroke-opacity:1"
     id="g472"
     transform="translate(-21469.573,-32609.708)">
    <path
       d="m 28740,36230 0,-500 120,0 70,20 50,50 20,50 20,90 0,70 -20,100 -20,40 -50,50 -70,30 -120,0"
       id="path474"
       inkscape:connector-curvature="0" />
    <path
       d="m 29220,36200 70,30 120,0 40,-30 30,-20 20,-50 0,-50 -20,-40 -30,-30 -40,-20 -100,-30 -50,-20 -20,-20 -20,-50 0,-50 20,-50 20,-20 50,-20 120,0 70,20"
       id="path476"
       inkscape:connector-curvature="0" />
    <path
       d="m 30000,36230 -160,-240"
       id="path478"
       inkscape:connector-curvature="0" />
    <path
       d="m 29720,36230 0,-500 190,0 50,20 20,20 20,50 0,70 -20,50 -20,20 -50,30 -190,0"
       id="path480"
       inkscape:connector-curvature="0" />
  </g>
  <g
     style="fill:#840000;fill-opacity:0;stroke:#840000;stroke-width:60;stroke-linecap:round;stroke-linejoin:round;stroke-opacity:1"
     id="g482"
     transform="translate(-21469.573,-32609.708)">
    <path
       d="m 30900,35880 -280,0"
       id="path484"
       inkscape:connector-curvature="0" />
    <path
       d="m 30760,35880 0,-500 -50,70 -50,50 -40,20"
       id="path486"
       inkscape:connector-curvature="0" />
    <path
       d="m 31070,35380 330,0 -210,500"
       id="path488"
       inkscape:connector-curvature="0" />
    <path
       d="m 30500,35000 1000,0"
       id="path490"
       inkscape:connector-curvature="0" />
  </g>
  <g
     style="fill:#008484;fill-opacity:0;stroke:#008484;stroke-width:60;stroke-linecap:round;stroke-linejoin:round;stroke-opacity:1"
     id="g492"
     transform="translate(-21469.573,-32609.708)">
    <path
       d="m 28720,35230 0,-500 120,0 70,20 50,50 20,50 20,90 0,70 -20,100 -20,40 -50,50 -70,30 -120,0"
       id="path494"
       inkscape:connector-curvature="0" />
    <path
       d="m 29500,35180 -20,20 -70,30 -50,0 -70,-30 -50,-50 -20,-40 -20,-100 0,-70 20,-90 20,-50 50,-50 70,-20 50,0 70,20 20,20"
       id="path496"
       inkscape:connector-curvature="0" />
    <path
       d="m 29720,35230 0,-500 120,0 70,20 50,50 20,50 20,90 0,70 -20,100 -20,40 -50,50 -70,30 -120,0"
       id="path498"
       inkscape:connector-curvature="0" />
  </g>
  <g
     style="fill:#840000;fill-opacity:0;stroke:#840000;stroke-width:60;stroke-linecap:round;stroke-linejoin:round;stroke-opacity:1"
     id="g500"
     transform="translate(-21469.573,-32609.708)">
    <path
       d="m 30900,34880 -280,0"
       id="path502"
       inkscape:connector-curvature="0" />
    <path
       d="m 30760,34880 0,-500 -50,70 -50,50 -40,20"
       id="path504"
       inkscape:connector-curvature="0" />
    <path
       d="m 31190,34590 -50,-20 -20,-30 -20,-40 0,-30 20,-50 20,-20 50,-20 100,0 40,20 30,20 20,50 0,30 -20,40 -30,30 -40,20 -100,0 -50,20 -20,30 -20,50 0,90 20,50 20,20 50,30 100,0 40,-30 30,-20 20,-50 0,-90 -20,-50 -30,-30 -40,-20"
       id="path506"
       inkscape:connector-curvature="0" />
  </g>
  <g
     style="fill:#008484;fill-opacity:0;stroke:#008484;stroke-width:60;stroke-linecap:round;stroke-linejoin:round;stroke-opacity:1"
     id="g508"
     transform="translate(-21469.573,-32609.708)">
    <path
       d="m 26040,32640 0,490 30,50 30,30 60,30 110,0 60,-30 30,-30 30,-50 0,-490"
       id="path510"
       inkscape:connector-curvature="0" />
    <path
       d="m 26990,33240 -350,0"
       id="path512"
       inkscape:connector-curvature="0" />
    <path
       d="m 26820,33240 0,-600 -60,90 -60,50 -60,30"
       id="path514"
       inkscape:connector-curvature="0" />
    <path
       d="m 26740,42330 -600,0"
       id="path516"
       inkscape:connector-curvature="0" />
    <path
       d="m 26430,42330 0,-350"
       id="path518"
       inkscape:connector-curvature="0" />
    <path
       d="m 26740,41980 -600,0"
       id="path520"
       inkscape:connector-curvature="0" />
    <path
       d="m 26430,41700 0,-200"
       id="path522"
       inkscape:connector-curvature="0" />
    <path
       d="m 26740,41410 0,290 -600,0 0,-290"
       id="path524"
       inkscape:connector-curvature="0" />
    <path
       d="m 26140,41210 600,-400"
       id="path526"
       inkscape:connector-curvature="0" />
    <path
       d="m 26140,40810 600,400"
       id="path528"
       inkscape:connector-curvature="0" />
    <path
       d="m 26800,40730 0,-460"
       id="path530"
       inkscape:connector-curvature="0" />
    <path
       d="m 26430,39930 0,200"
       id="path532"
       inkscape:connector-curvature="0" />
    <path
       d="m 26740,40130 -600,0 0,-290"
       id="path534"
       inkscape:connector-curvature="0" />
    <path
       d="m 26140,39700 0,-340"
       id="path536"
       inkscape:connector-curvature="0" />
    <path
       d="m 26740,39530 -600,0"
       id="path538"
       inkscape:connector-curvature="0" />
    <path
       d="m 26200,39190 -30,-30 -30,-60 0,-140 30,-60 30,-30 60,-30 50,0 90,30 340,340 0,-370"
       id="path540"
       inkscape:connector-curvature="0" />
    <path
       d="m 26140,38640 0,-370 230,200 0,-80 30,-60 30,-30 50,-30 150,0 50,30 30,30 30,60 0,170 -30,60 -30,20"
       id="path542"
       inkscape:connector-curvature="0" />
    <path
       d="m 26200,38050 -30,-30 -30,-60 0,-140 30,-60 30,-30 60,-30 50,0 90,30 340,340 0,-370"
       id="path544"
       inkscape:connector-curvature="0" />
    <path
       d="m 26740,37100 -280,200"
       id="path546"
       inkscape:connector-curvature="0" />
    <path
       d="m 26740,37450 -600,0 0,-230 30,-60 30,-30 60,-30 80,0 60,30 30,30 30,60 0,230"
       id="path548"
       inkscape:connector-curvature="0" />
    <path
       d="m 26740,36560 0,290 -600,0"
       id="path550"
       inkscape:connector-curvature="0" />
  </g>
</svg>
